#!OML:ASF F:\VICON\USERDATA\INSTALL\rory3\rory3.ASF
:FULLY-SPECIFIED
:DEGREES
41
root 0.582360211073329 18.593945963491816 12.494742798616823 4.049652864111306 -7.178667044313089 0.2796171610016387
lfemur 5.855153691972188 -5.76910906750858 -26.261534908163647
ltibia 49.85033523509601
lfoot 21.312974036333756 -15.22314768785009
ltoes -7.132422974534445
rfemur -30.038359458254135 2.6221139659596044 26.655803744352003
rtibia 28.622426167172435
rfoot 5.418675211161957 -3.3151020798150532
rtoes -14.266039113997516
lowerback nan -0.6767752760765823 -1.101445390122095
upperback -0.5883405635430755 -0.8513427740885233 1.5263087609221482
thorax -8.325144319989356 -0.35779508917866887 2.5835916028390886
lowerneck -19.204795523423638 -2.8661158358029573 -2.8708494466552574
upperneck 9.919808582561974 -3.513128561153567 4.240224821698902
head 6.469014664315994 -1.4603148186997303 1.3957967166383034
lclavicle -4.186975834638542e-15 -6.502890486229665e-15
lhumerus -36.191140673447 -12.488982860371753 89.76786936550955
lradius 119.8500622348721
lwrist 30.104740096851604
lhand -24.613059786804076 2.520137194092972
lfingers nan
lthumb 1.8083472398344091 32.377198115445985
rclavicle -4.281394408483042e-15 -6.6570239468129e-15
rhumerus -63.17620962175149 4.218983556953951 -94.96661489492051
rradius 114.62760143097086
rwrist -20.727300746689068
rhand -17.428015472906793 nan
rfingers nan
rthumb 8.288557157661334 10.762616769030053
42
root 0.587692868783142 18.362200340533498 13.900651235894419 2.9411717942672038 -8.015913460231802 0.3048637394664597
lfemur 3.577816259268843 -3.8838333711237127 -25.427488447541634
ltibia 58.248318838778296
lfoot 19.893790429789842 -15.503398464601712
ltoes -4.873428229808475
rfemur -29.43624498444666 2.4580197370236903 27.02753893995989
rtibia 32.561052380120344
rfoot 2.8465452272551484 -1.3141410164538954
rtoes -10.016383695593792
lowerback nan -0.31351122786426544 -1.091426185361175
upperback -0.3191097827123154 -0.3607699248314937 1.510681595729066
thorax -8.495117306705307 -0.1053973183722362 2.231726164090834
lowerneck -19.031687868424488 -2.8839907166147976 -2.890982471912076
upperneck 9.583690082159661 -3.531627363540723 4.169541451097602
head 6.2824584883704615 -1.494958936583956 1.3690571416175794
lclavicle -3.895644170518549e-15 -5.847655374437007e-15
lhumerus -36.763296518010044 -12.389434822636458 89.97443705605815
lradius 117.00127618395588
lwrist 29.780415800250918
lhand -25.029756436942375 2.655127231923879
lfingers nan
lthumb 1.5699125694510343 32.6862893890871
rclavicle -3.744355097638905e-15 -5.672679854429349e-15
rhumerus -62.2378466712199 3.3510120780580834 -94.57975552295741
rradius 114.0643320673043
rwrist -20.365056800798534
rhand -17.535408492539286 nan
rfingers nan
rthumb 8.242003796699665 10.50212878544997
43
root 0.5793592853834277 18.094343259579784 15.401860986773798 2.094698122656073 -8.488038566230621 -0.43091462502830424
lfemur 1.0028003817962698 -1.8209833426641133 -23.229546220879747
ltibia 67.2422779347278
lfoot 17.8424604573713 -14.408798029229159
ltoes -5.0377814793033675
rfemur -28.74316613628278 3.062088384814069 28.08731977834251
rtibia 37.55506599767891
rfoot -1.9969610753438358 -0.5668485686280045
rtoes -3.2707672016019007
lowerback nan -0.030316064160903045 -0.41543505624660115
upperback -0.08767230804283055 0.10519860023324834 1.6563259025573376
thorax -8.66873966922038 0.12060656435620731 1.92701316750097
lowerneck -18.980676520015177 -2.870058543601836 -2.841272870150969
upperneck 9.413795977268649 -3.508826982052587 4.009167084455342
head 6.167587347455229 -1.5076785770133294 1.3082797087150662
lclavicle -4.461608896217076e-15 -7.124511297769441e-15
lhumerus -37.74951881851946 -11.972483087852712 90.22137069068654
lradius 114.0471004344546
lwrist 29.585163288738325
lhand -25.410367992072963 3.1297436097951263
lfingers nan
lthumb 1.3047350259745925 33.14186198598747
rclavicle -4.468700389565053e-15 -7.191430808799979e-15
rhumerus -60.98724176409879 2.8064932829880807 -94.41237384720125
rradius 113.30511223947254
rwrist -20.993683765316877
rhand -17.507261948311346 nan
rfingers nan
rthumb 8.741670098488587 10.358275090790853
44
root 0.5295155500080153 17.805538145738268 15.569106579064583 1.767403693677398 -9.13534387223465 -1.9782607701150146
lfemur -2.5872982390878185 1.0573982913819493 -18.860209274991917
ltibia 77.06742311736296
lfoot 15.676385949097213 -12.148185441325655
ltoes -6.594077518971409
rfemur -28.07151891700581 4.587669417269288 30.043899823915222
rtibia 42.85498949915231
rfoot -7.418394055867396 -2.2399026823886197
rtoes 2.1563278042912097
lowerback nan 0.21972138826453835 0.8829901796375322
upperback 0.10303440566076605 0.6847050104725835 2.14568637508712
thorax -8.849809173455066 0.38096188214798227 1.5795374692782582
lowerneck -19.201242058503233 -2.83811326360589 -2.717235087274042
upperneck 9.384443878852295 -3.4605716056335734 3.7872369975205147
head 6.1320113505538 -1.511076876562914 1.2205051220568086
lclavicle -2.8925236722215183e-15 -4.6718283261954536e-15
lhumerus -39.08352335754332 -11.47265992940992 90.53223296930399
lradius 111.1165902139553
lwrist 29.84557126799603
lhand -25.668342691754567 3.4423385038403422
lfingers nan
lthumb 1.05338148127373 33.42294238913452
rclavicle -2.327652430385355e-15 -4.380676588793377e-15
rhumerus -59.511372849974464 2.6002809415527413 -94.40976929703756
rradius 112.4266538122516
rwrist -21.686264956399373
rhand -17.68125868490091 nan
rfingers nan
rthumb 8.699262720052626 8.948466017199694
